<svg xmlns="http://www.w3.org/2000/svg" width="16" height="22"><defs><linearGradient id="a" x1="16" x2="0" y1="10.98" y2="10.97" gradientUnits="userSpaceOnUse"><stop offset="0" stop-color="#3bb65c"/><stop offset=".99" stop-color="#2f9b4c"/><stop offset="1" stop-color="#2f9b4c"/></linearGradient></defs><path fill="#00bc9e" d="M16 7.94c0 5.456-7.16 13.457-7.464 13.796a.728.728 0 01-1.072 0C7.159 21.397 0 13.396 0 7.941 0 3.549 3.588-.025 8-.025c4.41 0 8 3.574 8 7.966zm-3.976 0c0-2.212-1.805-4.005-4.024-4.005-2.22 0-4.025 1.793-4.025 4.006A4.02 4.02 0 008 11.95a4.02 4.02 0 004.024-4.01z"/><path fill="url(#a)" d="M16 7.94c0 5.456-7.16 13.457-7.464 13.796a.728.728 0 01-1.072 0C7.159 21.397 0 13.396 0 7.941 0 3.549 3.588-.025 8-.025c4.41 0 8 3.574 8 7.966zm-3.976 0c0-2.212-1.805-4.005-4.024-4.005-2.22 0-4.025 1.793-4.025 4.006A4.02 4.02 0 008 11.95a4.02 4.02 0 004.024-4.01z"/></svg>