<svg xmlns="http://www.w3.org/2000/svg" width="14" height="18" viewBox="0 0 14 18"><defs><linearGradient id="75csa" x1="13.99" x2="-.01" y1="8.99" y2="8.98" gradientUnits="userSpaceOnUse"><stop offset="0" stop-color="#3bb65c"/><stop offset=".99" stop-color="#2f9b4c"/><stop offset="1" stop-color="#2f9b4c"/></linearGradient></defs><g><g><path fill="#00bc9e" d="M13.811 15.458l-1.849-2.992c-.368-.596-1.202-.788-1.858-.425l-1.603.88a3.295 3.295 0 0 0-.213-.193c-.683-.618-1.618-1.462-2.465-2.835-.85-1.376-1.167-2.562-1.4-3.423-.025-.091-.048-.184-.072-.265l1.076-.592.53-.291c.656-.36.89-1.141.523-1.732L4.63.594C4.264.002 3.43-.19 2.773.174l-.898.489.015.026A4.062 4.062 0 0 0 .495 2.435c-1.062 2.508-.47 5.195 2.04 9.257 3.47 5.616 7.369 6.228 7.538 6.248.368.05.733.056 1.117.01a4.406 4.406 0 0 0 1.181-.293l.012.014.905-.476c.656-.362.89-1.145.523-1.737z"/><path fill="url(#75csa)" d="M13.811 15.458l-1.849-2.992c-.368-.596-1.202-.788-1.858-.425l-1.603.88a3.295 3.295 0 0 0-.213-.193c-.683-.618-1.618-1.462-2.465-2.835-.85-1.376-1.167-2.562-1.4-3.423-.025-.091-.048-.184-.072-.265l1.076-.592.53-.291c.656-.36.89-1.141.523-1.732L4.63.594C4.264.002 3.43-.19 2.773.174l-.898.489.015.026A4.062 4.062 0 0 0 .495 2.435c-1.062 2.508-.47 5.195 2.04 9.257 3.47 5.616 7.369 6.228 7.538 6.248.368.05.733.056 1.117.01a4.406 4.406 0 0 0 1.181-.293l.012.014.905-.476c.656-.362.89-1.145.523-1.737z"/></g></g></svg>